<?xml version="1.0" standalone="no"?>
<!DOCTYPE svg PUBLIC "-//W3C//DTD SVG 20010904//EN"
 "http://www.w3.org/TR/2001/REC-SVG-20010904/DTD/svg10.dtd">
<svg version="1.0" xmlns="http://www.w3.org/2000/svg"
 width="300.000000pt" height="300.000000pt" viewBox="0 0 300.000000 300.000000"
 preserveAspectRatio="xMidYMid meet">
<metadata>
Created by potrace 1.11, written by Peter Selinger 2001-2013
</metadata>
<g transform="translate(0.000000,300.000000) scale(0.100000,-0.100000)"
fill="#000000" stroke="none">
<path d="M0 1500 l0 -1500 1500 0 1500 0 0 1500 0 1500 -1500 0 -1500 0 0
-1500z m1756 913 c49 -55 154 -221 192 -304 91 -198 131 -368 139 -594 6 -190
-13 -332 -71 -508 -56 -171 -172 -386 -271 -502 l-25 -30 31 85 c42 118 104
360 131 515 20 112 23 165 23 385 -1 222 -4 272 -24 385 -28 158 -89 400 -129
513 -16 45 -27 82 -25 82 2 0 15 -12 29 -27z m-384 -317 c139 -200 215 -501
188 -742 -22 -203 -88 -383 -200 -549 -72 -107 -81 -108 -44 -1 76 219 120
500 110 711 -9 194 -53 429 -116 609 -34 101 -25 96 62 -28z m-336 -281 c65
-132 86 -224 86 -370 0 -142 -21 -235 -81 -359 -39 -81 -99 -172 -107 -163 -2
2 3 24 11 48 31 86 64 239 75 353 19 178 -11 405 -79 603 l-20 58 35 -40 c20
-22 55 -80 80 -130z"/>
</g>
</svg>
